<svg width="94" height="100" viewBox="0 0 94 100" fill="none" xmlns="http://www.w3.org/2000/svg">
<rect width="93.4848" height="100" rx="19" fill="white"/>
<path d="M47.1902 10.0032H47.4482C53.6668 10.0032 59.486 11.9434 64.4703 15.3207L64.3178 15.2226C69.5073 18.6854 73.7095 23.4807 76.6579 29.2192L76.7439 29.4028C79.6285 35.002 81.3316 41.7345 81.3316 48.9195C81.3316 66.0307 71.6708 80.5717 58.2351 85.8196L57.9937 85.9019C57.819 85.9652 57.6193 86 57.414 86C56.9647 86 56.5486 85.8291 56.213 85.5442L56.2186 85.5474C55.8635 85.1834 55.6416 84.6579 55.6416 84.0724C55.6416 84.0566 55.6416 84.0407 55.6416 84.0281V84.0312C55.6416 83.93 55.649 82.6364 55.6638 80.1507C55.6786 77.6649 55.686 75.3923 55.686 73.3328C55.7054 73.0954 55.7165 72.8232 55.7165 72.5447C55.7165 70.0378 54.8206 67.7715 53.3755 66.1351C55.0897 65.942 56.6374 65.6192 58.1407 65.1697L57.9299 65.2235C59.5193 64.7171 60.9061 64.0429 62.1931 63.1915L62.1071 63.2453C63.5162 62.359 64.7088 61.2322 65.6907 59.8965L65.7074 59.8743C66.7392 58.3677 67.5463 56.5951 68.0373 54.6675L68.0622 54.5567C68.6419 52.3949 68.9748 49.9102 68.9748 47.3369C68.9748 47.1945 68.9748 47.0489 68.972 46.9064V46.9286C68.972 46.8589 68.9748 46.7798 68.9748 46.7007C68.9748 42.7505 67.6379 39.158 65.455 36.477L65.4633 36.4865C65.9293 35.0938 66.1983 33.4859 66.1983 31.8052C66.1983 29.7509 65.7961 27.8075 65.0777 26.0635L65.1083 26.1458C64.7893 26.0761 64.4259 26.035 64.0515 26.035C63.1251 26.035 62.2514 26.2819 61.4747 26.7187L61.508 26.7028C59.9325 27.3675 58.5845 28.1209 57.3142 29.0008L57.4196 28.9312L55.7304 30.1466C53.1731 29.311 50.2357 28.8299 47.2013 28.8299C44.1669 28.8299 41.2295 29.311 38.4447 30.2099L38.6694 30.1466C38.196 29.7752 37.5664 29.3184 36.7805 28.7761C35.7459 28.0987 34.5227 27.4435 33.2524 26.8928L33.0693 26.8231C32.2566 26.3357 31.2942 26.0508 30.2707 26.0508C29.9267 26.0508 29.5883 26.0825 29.261 26.1458L29.2971 26.1394C28.6092 27.798 28.207 29.7446 28.207 31.7988C28.207 33.4796 28.4761 35.0907 28.9698 36.5752L28.9421 36.4834C26.7647 39.1548 25.4306 42.7473 25.4306 46.6975C25.4306 46.7766 25.4306 46.8589 25.4334 46.9381V46.9254C25.4306 47.0489 25.4306 47.1913 25.4306 47.3369C25.4306 49.8976 25.7634 52.3728 26.3847 54.7024L26.3431 54.5219C26.8674 56.5572 27.6634 58.3265 28.7008 59.8806L28.6758 59.8395C29.6577 61.2164 30.8448 62.3495 32.1901 63.201L32.2511 63.2358C33.4493 64.0334 34.839 64.7076 36.3007 65.1792L36.4283 65.214C37.7208 65.6097 39.2685 65.9325 40.8523 66.1129L40.9799 66.1256C39.7844 67.4803 38.9884 69.2908 38.8053 71.3102L38.8026 71.3482C38.2284 71.6679 37.5599 71.9275 36.8637 72.0952L36.8055 72.1079C36.0954 72.2693 35.2827 72.3611 34.4479 72.3611C34.3868 72.3611 34.3258 72.3611 34.2648 72.3611H34.2731C33.1803 72.3358 32.1762 71.9306 31.3469 71.2596L31.3635 71.2723C30.3345 70.4525 29.5024 69.389 28.9199 68.1514L28.9005 68.1039C28.3513 67.0404 27.6273 66.1604 26.7703 65.4862L26.7453 65.4672C26.1212 64.9323 25.3862 64.5145 24.5929 64.2645L24.5485 64.2518L23.661 64.0999C23.5972 64.0935 23.5223 64.0904 23.4474 64.0904C23.0591 64.0904 22.6902 64.179 22.3546 64.3341L22.374 64.3246C22.1373 64.4765 22.0633 64.6707 22.1521 64.907C22.2602 65.1792 22.3934 65.4134 22.5543 65.6192L22.5515 65.616C22.7207 65.8439 22.9121 66.0433 23.1201 66.2174L23.1284 66.2237L23.4391 66.4769C24.224 66.9454 24.8703 67.5974 25.3612 68.3856L25.3723 68.4046C25.9021 69.1547 26.3681 70.003 26.7425 70.9114L26.7703 70.9874L27.2141 72.1522C27.5885 73.4246 28.2681 74.4881 29.1556 75.2573L29.1695 75.2699C30.0016 76.0106 31.0057 76.5423 32.1013 76.7829L32.1457 76.7892C33.061 76.9918 34.1261 77.1184 35.2134 77.1437H35.2328C35.3576 77.1501 35.5019 77.1501 35.6489 77.1501C36.3728 77.1501 37.0829 77.0836 37.7763 76.9538L37.7014 76.9665L38.7221 76.7639C38.7221 78.049 38.7295 79.5451 38.7443 81.2522C38.7591 82.9593 38.7665 83.8804 38.7665 84.0154V84.0597C38.7665 84.6453 38.5446 85.1707 38.1896 85.5347C37.8595 85.8164 37.4434 85.9873 36.9913 85.9873C36.7833 85.9873 36.5836 85.9525 36.3978 85.8861L36.4116 85.8892C22.7401 80.5432 13.0876 66.0022 13.0876 48.8878C13.0876 41.7091 14.7851 34.983 17.7502 29.2034L17.6615 29.3869C20.6959 23.4648 24.898 18.6695 29.9267 15.3049L30.0876 15.2068C34.9111 11.9339 40.7247 10 46.9323 10H47.2041H47.1902V10.0032ZM25.9992 65.9199C26.0879 65.6835 25.9844 65.481 25.6885 65.3122C25.3927 65.2109 25.2004 65.2446 25.1116 65.4134C25.0228 65.6498 25.1264 65.8523 25.4223 66.0212C25.6885 66.2237 25.8808 66.19 25.9992 65.9199ZM27.3777 67.6449C27.5848 67.4761 27.5552 67.206 27.289 66.8346C26.9931 66.5308 26.7564 66.4801 26.5789 66.6827C26.3718 66.8515 26.4014 67.1216 26.6676 67.493C26.9617 67.8243 27.1983 67.8739 27.3777 67.6418V67.6449ZM28.7091 69.9239C28.9754 69.6875 28.9754 69.3668 28.7091 68.9616C28.4724 68.5227 28.2209 68.4215 27.9546 68.6578C27.6884 68.8266 27.6884 69.1305 27.9546 69.5694C28.2209 70.0083 28.4724 70.1264 28.7091 69.9239ZM30.573 72.0541C30.8097 71.784 30.7505 71.4632 30.3955 71.0918C30.0405 70.6867 29.7446 70.6361 29.5079 70.9399C29.2416 71.21 29.3008 71.5307 29.6854 71.9021C30.0405 72.3073 30.3363 72.3537 30.573 72.0414V72.0541ZM33.1054 73.3201C33.1941 72.9488 33.0018 72.6787 32.5285 72.5099C32.0847 72.3748 31.8036 72.493 31.6853 72.8644C31.5669 73.2357 31.7592 73.489 32.2622 73.624C32.706 73.8287 32.987 73.7274 33.1054 73.3201ZM35.904 73.5734C35.904 73.1344 35.6526 72.9488 35.1496 73.0163C34.6762 73.0163 34.4395 73.202 34.4395 73.5734C34.4395 74.0123 34.691 74.198 35.194 74.1304C35.6674 74.1326 35.904 73.9447 35.904 73.5734ZM38.4808 73.0669C38.4216 72.6955 38.1554 72.5436 37.682 72.6111C37.2086 72.7124 37.0015 72.9656 37.0607 73.3708C37.1199 73.7759 37.3861 73.911 37.8595 73.7759C38.3329 73.6409 38.5381 73.4046 38.4808 73.0669Z" fill="black"/>
</svg>
